<?xml version="1.0" encoding="UTF-8"?>
<svg xmlns="http://www.w3.org/2000/svg" xmlns:xlink="http://www.w3.org/1999/xlink" width="375pt" height="374.999991pt" viewBox="0 0 375 374.999991" version="1.2">
<g id="surface1">
<path style=" stroke:none;fill-rule:nonzero;fill:rgb(54.899597%,47.839355%,90.19928%);fill-opacity:1;" d="M 100.824219 209.175781 L 51.257812 258.8125 C 37.554688 272.59375 37.554688 294.789062 51.257812 308.511719 C 64.957031 322.230469 87.125 322.230469 100.824219 308.511719 L 150.453125 258.8125 L 179.375 287.839844 C 190.765625 299.242188 209.335938 299.242188 220.722656 287.839844 L 237.226562 271.3125 C 239.539062 268.996094 239.539062 265.277344 237.226562 262.960938 L 96.683594 122.222656 C 94.429688 119.964844 90.714844 119.964844 88.464844 122.222656 L 71.898438 138.808594 C 60.453125 150.332031 60.453125 168.746094 71.898438 180.152344 Z M 113.246094 213.324219 C 115.5 211.003906 115.5 207.285156 113.246094 205.03125 L 80.183594 171.917969 C 73.300781 165.027344 73.300781 153.992188 80.183594 147.101562 L 92.605469 134.722656 L 224.863281 267.105469 L 212.441406 279.546875 C 205.621094 286.375 194.476562 286.375 187.660156 279.546875 L 154.59375 246.433594 C 152.28125 244.117188 148.566406 244.117188 146.3125 246.433594 L 92.605469 300.21875 C 83.46875 309.363281 68.613281 309.363281 59.476562 300.21875 C 50.40625 291.070312 50.40625 276.253906 59.476562 267.105469 Z M 84.324219 275.398438 C 79.753906 270.824219 72.328125 270.824219 67.757812 275.398438 C 63.191406 279.972656 63.191406 287.351562 67.757812 291.925781 C 72.328125 296.496094 79.753906 296.496094 84.324219 291.925781 C 88.890625 287.351562 88.890625 279.972656 84.324219 275.398438 Z M 84.324219 275.398438 "/>
<path style=" stroke:none;fill-rule:nonzero;fill:rgb(54.899597%,47.839355%,90.19928%);fill-opacity:1;" d="M 224.863281 84.964844 L 216.582031 76.730469 L 171.09375 122.222656 C 168.84375 124.539062 165.128906 124.539062 162.875 122.222656 C 160.5625 119.964844 160.5625 116.246094 162.875 113.929688 L 208.300781 68.4375 L 195.941406 56 C 193.625 53.742188 189.910156 53.742188 187.660156 56 L 100.824219 142.953125 L 216.582031 258.8125 L 303.417969 171.917969 C 305.667969 169.601562 305.667969 165.941406 303.417969 163.625 L 278.207031 138.441406 C 276.625 136.796875 274.25 136.308594 272.117188 137.039062 L 237.53125 149.113281 L 254.640625 121.125 C 256.042969 118.867188 255.675781 115.878906 253.789062 113.929688 L 233.144531 93.257812 L 204.160156 122.222656 C 201.90625 124.539062 198.191406 124.539062 195.941406 122.222656 C 193.625 119.964844 193.625 116.246094 195.941406 113.929688 Z M 224.863281 84.964844 "/>
<path style=" stroke:none;fill-rule:nonzero;fill:rgb(54.899597%,47.839355%,90.19928%);fill-opacity:1;" d="M 286.609375 218.628906 C 287.886719 216.1875 289.289062 213.628906 290.75 211.066406 C 293.367188 206.554688 296.171875 202.042969 298.972656 197.773438 C 300.613281 195.210938 301.953125 193.261719 302.6875 192.101562 C 305 188.75 309.992188 188.75 312.308594 192.101562 C 313.097656 193.261719 314.378906 195.210938 316.082031 197.773438 C 318.882812 202.042969 321.625 206.554688 324.242188 211.066406 C 325.765625 213.628906 327.164062 216.1875 328.445312 218.628906 C 333.742188 228.6875 336.726562 236.496094 336.726562 242.289062 C 336.726562 258.445312 323.632812 271.558594 307.496094 271.558594 C 291.359375 271.558594 278.265625 258.445312 278.265625 242.289062 C 278.265625 236.496094 281.25 228.6875 286.609375 218.628906 Z M 286.609375 218.628906 "/>
</g>
</svg>
